<?xml version="1.0" encoding="UTF-8" standalone="no"?>
<!-- Created with Inkscape (http://www.inkscape.org/) -->
<svg
   xmlns:dc="http://purl.org/dc/elements/1.1/"
   xmlns:cc="http://creativecommons.org/ns#"
   xmlns:rdf="http://www.w3.org/1999/02/22-rdf-syntax-ns#"
   xmlns:svg="http://www.w3.org/2000/svg"
   xmlns="http://www.w3.org/2000/svg"
   xmlns:sodipodi="http://sodipodi.sourceforge.net/DTD/sodipodi-0.dtd"
   xmlns:inkscape="http://www.inkscape.org/namespaces/inkscape"
   width="108.525"
   height="108.6"
   id="svg2971"
   sodipodi:version="0.32"
   inkscape:version="0.46"
   version="1.0"
   sodipodi:docname="ADR_8.svg"
   inkscape:output_extension="org.inkscape.output.svg.inkscape">
  <defs
     id="defs2973">
    <inkscape:perspective
       sodipodi:type="inkscape:persp3d"
       inkscape:vp_x="0 : 526.18109 : 1"
       inkscape:vp_y="0 : 1000 : 0"
       inkscape:vp_z="744.09448 : 526.18109 : 1"
       inkscape:persp3d-origin="372.04724 : 350.78739 : 1"
       id="perspective2979" />
  </defs>
  <sodipodi:namedview
     id="base"
     pagecolor="#ffffff"
     bordercolor="#666666"
     borderopacity="1.0"
     inkscape:pageopacity="0.0"
     inkscape:pageshadow="2"
     inkscape:zoom="4.2688843"
     inkscape:cx="54.262501"
     inkscape:cy="54.112499"
     inkscape:document-units="px"
     inkscape:current-layer="layer1"
     showgrid="false"
     inkscape:window-width="640"
     inkscape:window-height="675"
     inkscape:window-x="176"
     inkscape:window-y="176" />
  <metadata
     id="metadata2976">
    <rdf:RDF>
      <cc:Work
         rdf:about="">
        <dc:format>image/svg+xml</dc:format>
        <dc:type
           rdf:resource="http://purl.org/dc/dcmitype/StillImage" />
      </cc:Work>
    </rdf:RDF>
  </metadata>
  <g
     inkscape:label="Calque 1"
     inkscape:groupmode="layer"
     id="layer1"
     transform="translate(-306.27857,206.16298)">
    <g
       id="g195"
       transform="matrix(1.25,0,0,-1.25,310.47857,-148.86298)">
      <path
         d="M 0,0 L -0.72,-0.48 L -3.12,2.16 L -2.64,2.64 L 0,0 z M 4.08,-4.08 L 3.36,-4.56 L 0.96,-1.92 L 1.44,-1.44 L 4.08,-4.08 z M 8.16,-8.16 L 7.44,-8.64 L 5.04,-6 L 5.52,-5.52 L 8.16,-8.16 z M 12.24,-12 L 11.76,-12.72 L 9.12,-10.08 L 9.6,-9.6 L 12.24,-12 z M 16.32,-16.08 L 15.84,-16.8 L 13.2,-14.16 L 13.68,-13.68 L 16.32,-16.08 z M 20.4,-20.16 L 19.92,-20.64 L 17.28,-18.24 L 17.76,-17.76 L 20.4,-20.16 z M 24.48,-24.24 L 24,-24.72 L 21.36,-22.32 L 21.84,-21.84 L 24.48,-24.24 z M 28.56,-28.32 L 28.08,-28.8 L 25.44,-26.4 L 25.92,-25.92 L 28.56,-28.32 z M 32.64,-32.4 L 32.16,-32.88 L 29.52,-30.48 L 30,-30 L 32.64,-32.4 z M 36.72,-36.48 L 36.24,-36.96 L 33.6,-34.56 L 34.08,-33.84 L 36.72,-36.48 z M 40.56,-40.8 L 40.08,-40.8 L 37.68,-38.64 L 38.16,-37.92 L 40.56,-40.32 L 40.56,-40.8 z M 40.56,-40.8 L 40.32,-41.04 L 40.08,-40.8 L 40.56,-40.8 z M 40.32,-40.08 L 40.8,-40.56 L 40.56,-40.8 L 40.08,-40.32 L 40.32,-40.08 z M 44.4,-36 L 44.88,-36.48 L 42.24,-38.88 L 41.76,-38.4 L 44.4,-36 z M 48.48,-31.92 L 48.96,-32.4 L 46.32,-34.8 L 45.84,-34.32 L 48.48,-31.92 z M 52.56,-27.84 L 53.04,-28.32 L 50.4,-30.72 L 49.92,-30.24 L 52.56,-27.84 z M 56.64,-23.76 L 57.12,-24.24 L 54.48,-26.64 L 54,-26.16 L 56.64,-23.76 z M 60.72,-19.68 L 61.2,-20.16 L 58.56,-22.56 L 58.08,-22.08 L 60.72,-19.68 z M 64.8,-15.6 L 65.28,-16.08 L 62.64,-18.48 L 62.16,-18 L 64.8,-15.6 z M 68.88,-11.52 L 69.36,-12 L 66.72,-14.4 L 66.24,-13.92 L 68.88,-11.52 z M 72.96,-7.44 L 73.44,-7.92 L 70.8,-10.32 L 70.32,-9.84 L 72.96,-7.44 z M 76.98,-3.36 L 77.46,-3.84 L 74.82,-6.48 L 74.34,-5.76 L 76.98,-3.36 z M 81.06,0.72 L 81.54,0.24 L 78.9,-2.4 L 78.42,-1.68 L 81.06,0.72 z M 83.22,2.64 L 83.22,2.16 L 82.98,1.68 L 82.5,2.4 L 82.74,2.64 L 83.22,2.64 z M 83.22,2.64 L 83.46,2.4 L 83.22,2.16 L 83.22,2.64 z M 80.58,4.32 L 81.06,4.8 L 83.22,2.64 L 82.74,2.16 L 80.58,4.32 z M 76.5,8.4 L 76.98,8.88 L 79.62,6.48 L 79.14,5.76 L 76.5,8.4 z M 72.48,12.48 L 72.96,12.96 L 75.54,10.56 L 75.06,9.84 L 72.48,12.48 z M 68.4,16.56 L 68.88,17.04 L 71.52,14.64 L 71.04,13.92 L 68.4,16.56 z M 64.32,20.64 L 64.8,21.12 L 67.44,18.48 L 66.96,18 L 64.32,20.64 z M 60.24,24.72 L 60.72,25.2 L 63.36,22.56 L 62.88,22.08 L 60.24,24.72 z M 56.16,28.8 L 56.64,29.28 L 59.28,26.64 L 58.8,26.16 L 56.16,28.8 z M 52.08,32.88 L 52.56,33.36 L 55.2,30.72 L 54.72,30.24 L 52.08,32.88 z M 48,36.96 L 48.48,37.44 L 51.12,34.8 L 50.64,34.32 L 48,36.96 z M 43.92,41.04 L 44.4,41.52 L 47.04,38.88 L 46.56,38.4 L 43.92,41.04 z M 40.08,45.6 L 40.56,45.6 L 42.96,42.96 L 42.48,42.48 L 40.08,44.88 L 40.08,45.6 z M 40.08,45.6 L 40.32,45.84 L 40.56,45.6 L 40.08,45.6 z M 40.32,44.88 L 39.84,45.36 L 40.08,45.6 L 40.56,44.88 L 40.32,44.88 z M 36.24,40.8 L 35.76,41.28 L 38.4,43.92 L 38.88,43.44 L 36.24,40.8 z M 32.16,36.72 L 31.68,37.2 L 34.32,39.84 L 34.8,39.36 L 32.16,36.72 z M 28.08,32.64 L 27.6,33.12 L 30.24,35.76 L 30.72,35.28 L 28.08,32.64 z M 24,28.56 L 23.52,29.04 L 26.16,31.68 L 26.64,31.2 L 24,28.56 z M 19.92,24.48 L 19.44,24.96 L 22.08,27.6 L 22.56,27.12 L 19.92,24.48 z M 15.84,20.4 L 15.36,21.12 L 18,23.52 L 18.48,23.04 L 15.84,20.4 z M 11.76,16.32 L 11.28,17.04 L 13.92,19.44 L 14.4,18.96 L 11.76,16.32 z M 7.68,12.48 L 7.2,12.96 L 9.6,15.36 L 10.32,14.88 L 7.68,12.48 z M 3.6,8.4 L 3.12,8.88 L 5.52,11.28 L 6.24,10.8 L 3.6,8.4 z M -0.48,4.32 L -0.96,4.8 L 1.44,7.2 L 2.16,6.72 L -0.48,4.32 z M -3.12,2.16 L -3.12,2.64 L -2.64,3.12 L -1.92,2.64 L -2.64,2.16 L -3.12,2.16 z M -3.12,2.16 L -3.36,2.4 L -3.12,2.64 L -3.12,2.16"
         style="fill:#1f1a17;fill-opacity:1;fill-rule:nonzero;stroke:none"
         id="path197" />
    </g>
    <g
       id="g199"
       transform="matrix(1.25,0,0,-1.25,314.07857,-151.86298)">
      <path
         d="M 0,0 L 37.44,-37.2 L 74.34,0 L 37.44,37.2 L 0,0 z"
         style="fill:none;stroke:#1f1a17;stroke-width:0.71899998;stroke-linecap:round;stroke-linejoin:round;stroke-miterlimit:10;stroke-dasharray:none;stroke-opacity:1"
         id="path201" />
    </g>
    <g
       id="g203"
       transform="matrix(1.25,0,0,-1.25,313.77857,-151.56298)">
      <path
         d="M 0,0 L 37.68,-37.68 L 74.1,0 L 0,0"
         style="fill:#1f1a17;fill-opacity:1;fill-rule:evenodd;stroke:none"
         id="path205" />
    </g>
    <g
       id="g207"
       transform="matrix(1.25,0,0,-1.25,330.87857,-161.16298)">
      <path
         d="M 0,0 L 0,-2.88 L 19.2,-2.88 L 19.2,0 L 12.48,0 L 12.48,-0.24 L 12.24,-0.48 L 10.08,-1.2 L 9.36,-1.2 L 8.88,-0.96 L 8.64,-0.96 L 8.16,-0.72 L 7.92,-0.72 L 7.68,-0.48 L 7.44,0 L 0,0"
         style="fill:#1f1a17;fill-opacity:1;fill-rule:evenodd;stroke:none"
         id="path209" />
    </g>
    <g
       id="g211"
       transform="matrix(1.25,0,0,-1.25,330.87857,-161.16298)">
      <path
         d="M 0,0 L 0,-2.88 L 19.2,-2.88 L 19.2,0 L 12.48,0 L 12.48,-0.24 L 12.24,-0.48 L 10.08,-1.2 L 9.36,-1.2 L 8.88,-0.96 L 8.64,-0.96 L 8.16,-0.72 L 7.92,-0.72 L 7.68,-0.48 L 7.44,0 L 0,0 z M 20.16,14.64 L 21.36,14.64 L 21.6,14.4 L 21.84,14.4 L 22.32,13.92 L 22.32,12.72 L 21.6,12 L 21.12,11.76 L 20.16,11.76 L 19.68,11.52 L 19.2,11.52 L 18.48,11.28 L 17.76,11.28 L 16.08,11.04 L 14.4,10.56 L 13.44,10.56 L 12.72,10.32 L 12.24,10.32 L 11.76,10.08 L 11.04,10.08 L 10.8,9.84 L 10.56,9.84 L 10.32,9.6 L 9.84,13.2 L 10.08,12.96 L 10.56,12.96 L 20.16,14.64 z"
         style="fill:none;stroke:#1f1a17;stroke-width:0.23999999;stroke-linecap:round;stroke-linejoin:round;stroke-miterlimit:10;stroke-dasharray:none;stroke-opacity:1"
         id="path213" />
    </g>
    <g
       id="g215"
       transform="matrix(1.25,0,0,-1.25,356.37857,-175.86298)">
      <path
         d="M 0,0 L -10.08,-0.96 L -10.08,-1.92 L -9.36,-1.68 L -0.24,0 L 0,0"
         style="fill:#1f1a17;fill-opacity:1;fill-rule:evenodd;stroke:none"
         id="path217" />
    </g>
    <g
       id="g219"
       transform="matrix(1.25,0,0,-1.25,356.37857,-175.86298)">
      <path
         d="M 0,0 L -10.08,-0.96 L -10.08,-1.92 L -9.36,-1.68 L -0.24,0 L 0,0 z"
         style="fill:none;stroke:#1f1a17;stroke-width:0.23999999;stroke-linecap:round;stroke-linejoin:round;stroke-miterlimit:10;stroke-dasharray:none;stroke-opacity:1"
         id="path221" />
    </g>
    <g
       id="g223"
       transform="matrix(1.25,0,0,-1.25,343.17857,-171.06298)">
      <path
         d="M 0,0 L 0,-0.72 L 0.24,-0.96 L 0.48,-0.96 L 0.72,-0.72 L 0.72,0.72 L 0.48,0.96 L 0.48,1.44 L 0.24,1.2 L 0.24,0.96 L 0,0.72 L 0,0"
         style="fill:#1f1a17;fill-opacity:1;fill-rule:evenodd;stroke:none"
         id="path225" />
    </g>
    <g
       id="g227"
       transform="matrix(1.25,0,0,-1.25,343.17857,-171.06298)">
      <path
         d="M 0,0 L 0,-0.72 L 0.24,-0.96 L 0.48,-0.96 L 0.72,-0.72 L 0.72,0.72 L 0.48,0.96 L 0.48,1.44 L 0.24,1.2 L 0.24,0.96 L 0,0.72 L 0,0 z"
         style="fill:none;stroke:#1f1a17;stroke-width:0.23999999;stroke-linecap:round;stroke-linejoin:round;stroke-miterlimit:10;stroke-dasharray:none;stroke-opacity:1"
         id="path229" />
    </g>
    <g
       id="g231"
       transform="matrix(1.25,0,0,-1.25,342.57857,-165.66298)">
      <path
         d="M 0,0 L 0.24,-0.24 L 0.24,-0.48 L 0.48,-0.72 L 0.72,-0.72 L 0.96,-0.48 L 0.96,-0.24 C 0.961,1.775 1.07,0.231 0.48,1.92 L 0.48,1.2 L 0.24,0.96 L 0.24,0.24 L 0,0"
         style="fill:#1f1a17;fill-opacity:1;fill-rule:evenodd;stroke:none"
         id="path233" />
    </g>
    <g
       id="g235"
       transform="matrix(1.25,0,0,-1.25,342.57857,-165.66298)">
      <path
         d="M 0,0 L 0.24,-0.24 L 0.24,-0.48 L 0.48,-0.72 L 0.72,-0.72 L 0.96,-0.48 L 0.96,-0.24 C 0.961,1.775 1.07,0.231 0.48,1.92 L 0.48,1.2 L 0.24,0.96 L 0.24,0.24 L 0,0 z"
         style="fill:none;stroke:#1f1a17;stroke-width:0.23999999;stroke-linecap:round;stroke-linejoin:round;stroke-miterlimit:10;stroke-dasharray:none;stroke-opacity:1"
         id="path237" />
    </g>
    <g
       id="g239"
       transform="matrix(1.25,0,0,-1.25,363.27857,-176.16298)">
      <path
         d="M 0,0 L 11.04,-0.96 L 10.8,-2.16 L 10.32,-1.68 L 0.48,0 L 0,0"
         style="fill:#1f1a17;fill-opacity:1;fill-rule:evenodd;stroke:none"
         id="path241" />
    </g>
    <g
       id="g243"
       transform="matrix(1.25,0,0,-1.25,363.27857,-176.16298)">
      <path
         d="M 0,0 L 11.04,-0.96 L 10.8,-2.16 L 10.32,-1.68 L 0.48,0 L 0,0 z M 0.48,2.88 L 0,3.12 L -0.48,3.12 L -0.96,2.88 L -1.2,2.88 L -1.92,2.16 L -1.92,1.92 L -2.16,1.44 L -2.16,1.2 L -1.2,0.24 L -0.72,0 L 0,0 L 0.24,-0.24 L 1.2,-0.24 L 1.92,-0.48 L 2.88,-0.48 L 4.56,-0.96 L 6.48,-1.2 L 7.44,-1.44 L 8.16,-1.44 L 8.88,-1.68 L 10.08,-1.68 L 10.56,-2.16 L 10.8,-2.16 L 10.8,-2.4 L 11.28,1.44 L 11.04,1.2 L 10.56,1.2 L 0.48,2.88 z M -13.68,-6.96 L -13.68,-7.92 L -13.44,-7.92 L -13.68,-8.16 L -13.68,-8.64 L -13.92,-8.64 L -14.4,-9.12 L -14.4,-10.56 L -14.64,-11.04 L -14.88,-11.04 L -15.12,-11.28 M -11.52,-6.24 L -11.76,-6.48 L -12.24,-7.44 L -12.48,-7.44 L -12.48,-7.68 L -12.24,-7.92 L -12.24,-8.64 L -12.48,-8.64 L -12.48,-8.88 L -12.96,-9.12 L -13.2,-9.12 L -13.2,-9.36 L -13.44,-9.6 L -13.44,-10.32 L -14.16,-11.04 M -18.72,-7.44 L -18.48,-7.68 L -18.72,-7.68 C -18.72,-8.16 -18.72,-8.64 -18.72,-9.12 L -18.48,-9.12 L -18,-9.6 L -18,-10.8 L -17.76,-11.04 L -17.52,-11.52 L -17.28,-11.76 M -20.64,-6.24 L -20.64,-6.48 L -20.16,-6.96 L -19.92,-7.44 L -19.92,-7.68 C -19.837,-8.659 -20.254,-8.661 -19.2,-9.12 L -19.2,-9.36 L -18.96,-9.36 L -18.96,-10.56 L -18.48,-10.8 L -18.24,-11.04 L -18,-11.04 M 13.68,-2.88 L 13.44,-3.12 L 13.68,-3.36 L 13.68,-4.56 L 13.2,-5.04 L 12.96,-5.04 L 12.96,-6.48 L 12.48,-6.96 L 12.48,-7.2 L 12.24,-7.2 M 16.32,-2.64 L 16.08,-2.64 L 15.6,-3.12 L 15.36,-3.6 L 15.36,-5.04 L 15.12,-5.28 L 14.64,-5.28 L 14.64,-5.52 L 14.4,-5.52 C 14.312,-6.631 14.755,-6.77 13.68,-7.2 L 13.68,-7.44 L 13.44,-7.44 M 7.44,-3.36 L 7.68,-3.6 L 7.44,-3.84 L 7.44,-4.32 L 7.2,-4.56 L 7.44,-4.8 L 7.44,-5.04 L 7.68,-5.28 L 7.92,-5.28 L 8.16,-5.52 L 8.16,-6.72 L 8.4,-7.2 L 8.88,-7.68 M 5.28,-3.12 L 5.28,-3.36 L 5.76,-3.84 L 6,-4.32 L 6,-5.52 L 6.48,-6 L 6.72,-6 L 6.72,-6.24 L 6.96,-6.24 L 6.96,-6.96 L 7.2,-7.2 L 7.44,-7.68 L 7.68,-7.92 L 7.92,-7.92"
         style="fill:none;stroke:#1f1a17;stroke-width:0.23999999;stroke-linecap:round;stroke-linejoin:round;stroke-miterlimit:10;stroke-dasharray:none;stroke-opacity:1"
         id="path245" />
    </g>
    <g
       id="g247"
       transform="matrix(1.25,0,0,-1.25,376.17857,-171.66298)">
      <path
         d="M 0,0 L 0,-0.48 L 0.24,-0.72 L 0.24,-0.96 L 0.72,-0.96 L 0.96,-0.72 L 0.96,0.48 L 0.72,0.72 L 0.72,0.96 L 0.48,1.2 L 0.48,1.68 L 0.48,0.96 L 0,0.48 L 0,0"
         style="fill:#1f1a17;fill-opacity:1;fill-rule:evenodd;stroke:none"
         id="path249" />
    </g>
    <g
       id="g251"
       transform="matrix(1.25,0,0,-1.25,376.17857,-171.66298)">
      <path
         d="M 0,0 L 0,-0.48 L 0.24,-0.72 L 0.24,-0.96 L 0.72,-0.96 L 0.96,-0.72 L 0.96,0.48 L 0.72,0.72 L 0.72,0.96 L 0.48,1.2 L 0.48,1.68 L 0.48,0.96 L 0,0.48 L 0,0 z M -3.36,-7.2 L -6.48,-7.2 L -6.96,-7.68 L -6.96,-8.16 L -6.72,-8.4 L -2.64,-8.4 L -7.92,-8.4 L -8.16,-8.64 L -8.4,-8.64 L -8.64,-8.88 L -8.64,-9.6 L -8.4,-9.84 L -8.16,-9.84 L -7.92,-10.08 L -2.64,-10.08 L -6.96,-10.08 L -6.96,-10.32 L -7.2,-10.56 L -6.96,-10.8 L -6.96,-11.04 L -6.72,-11.28 L -2.16,-11.28 L -5.04,-11.28 L -5.52,-11.76 L -5.52,-12.48 L -4.8,-12.48 L -4.32,-12.72 L -3.36,-12.72 C -2.32,-12.72 -1.28,-12.72 -0.24,-12.72 C 4.487,-12.919 2.783,-11.526 6.24,-11.76 M 6.24,-7.2 C 2.81,-7.278 4.21,-7.14 1.2,-5.76 L 0.96,-6.24 L 0.48,-6.24 L 0,-6.48 L -0.72,-6.24 L -1.68,-6.24 L -2.16,-6 L -2.4,-5.52 C -3.169,-6.135 -3.672,-5.986 -4.56,-6 L -4.56,-6.24 L -4.32,-6.72 L -4.08,-6.96 L -3.84,-6.96 L -3.6,-7.2 L -0.24,-7.2 L 0.24,-6.96 L 0,-6.96 L -0.48,-7.2 L -0.96,-7.2 L -0.96,-7.44 L -0.72,-7.92 L -0.72,-8.4 L 0,-9.12 L 0.48,-9.36 L 0.72,-9.36 L 1.68,-9.6"
         style="fill:none;stroke:#1f1a17;stroke-width:0.23999999;stroke-linecap:round;stroke-linejoin:round;stroke-miterlimit:10;stroke-dasharray:none;stroke-opacity:1"
         id="path253" />
    </g>
    <g
       id="g255"
       transform="matrix(1.25,0,0,-1.25,376.17857,-167.16298)">
      <path
         d="M 0,0 L 0,-0.48 L 0.24,-0.72 L 0.24,-0.96 L 0.72,-0.96 L 0.96,-0.72 L 0.96,0.48 L 0.72,0.72 L 0.72,1.2 L 0.48,1.44 L 0.48,1.68 L 0.48,0.96 L 0,0.48 L 0,0"
         style="fill:#1f1a17;fill-opacity:1;fill-rule:evenodd;stroke:none"
         id="path257" />
    </g>
    <g
       id="g259"
       transform="matrix(1.25,0,0,-1.25,376.17857,-167.16298)">
      <path
         d="M 0,0 L 0,-0.48 L 0.24,-0.72 L 0.24,-0.96 L 0.72,-0.96 L 0.96,-0.72 L 0.96,0.48 L 0.72,0.72 L 0.72,1.2 L 0.48,1.44 L 0.48,1.68 L 0.48,0.96 L 0,0.48 L 0,0 z"
         style="fill:none;stroke:#1f1a17;stroke-width:0.23999999;stroke-linecap:round;stroke-linejoin:round;stroke-miterlimit:10;stroke-dasharray:none;stroke-opacity:1"
         id="path261" />
    </g>
    <g
       id="g263"
       transform="matrix(1.25,0,0,-1.25,359.97857,-125.46298)">
      <path
         d="M 0,0 L 0.72,-0.24 L 0.96,-0.96 L 0.72,-1.44 L 0,-1.68 L -0.72,-1.44 L -0.96,-0.96 L -0.72,-0.24 L 0,0 z M 1.44,-2.16 L 2.16,-1.68 L 2.4,-0.96 L 2.16,0 L 1.68,0.72 L 0.96,0.96 L 0,1.2 L -0.96,0.96 L -1.68,0.72 L -2.16,0 L -2.4,-0.96 L -2.16,-1.68 L -1.68,-2.16 L -2.4,-2.88 L -2.64,-4.08 L -2.4,-5.04 L -1.92,-5.52 L -1.2,-6 L 0,-6.24 L 1.2,-6 L 1.92,-5.52 L 2.4,-5.04 L 2.64,-4.08 L 2.4,-2.88 L 1.44,-2.16 z M 0,-2.88 L 0.72,-3.12 L 0.96,-4.08 L 0.72,-4.8 L 0,-5.04 L -0.96,-4.8 L -1.2,-4.08 L -0.96,-3.12 L 0,-2.88"
         style="fill:#ffffff;fill-opacity:1;fill-rule:evenodd;stroke:none"
         id="path265" />
    </g>
  </g>
</svg>
